
<svg xmlns="http://www.w3.org/2000/svg" aria-hidden="true" style="position:absolute;width:0;height:0;overflow:hidden">
  <defs>
    <symbol id="icon-logo" viewBox="0 0 32 32">
<path d="M0 16v16h32v-32h-32v16zM7.477 4.544c0.427 0.128 0.704 0.299 1.067 0.672l0.491 0.512 0.331-0.405c0.949-1.12 2.869-1.184 3.883-0.128 0.256 0.267 0.981 1.557 3.307 5.845 0.352 0.64 1.024 1.867 1.493 2.72 1.504 2.709 1.952 3.541 2.763 5.013l0.789 1.44 0.053-6.773c0.064-7.509 0.021-7.125 0.779-7.968 0.576-0.629 1.44-1.013 2.304-1.013 1.333-0.011 2.325 0.608 2.891 1.771l0.32 0.683v18.592l-0.267 0.576c-0.437 0.917-1.312 1.461-2.336 1.472-0.811 0.011-1.472-0.277-1.984-0.843l-0.384-0.416-0.491 0.491c-0.992 0.992-2.507 1.056-3.595 0.139-0.181-0.149-0.501-0.597-0.715-0.981-0.224-0.395-0.619-1.12-0.896-1.621s-0.661-1.195-0.853-1.547c-0.459-0.843-2.016-3.68-2.72-4.96-0.309-0.555-1.184-2.144-1.931-3.52l-1.376-2.496-0.053 6.763-0.053 6.773-0.288 0.544c-0.565 1.067-1.643 1.696-2.912 1.685-1.077-0.011-2.112-0.64-2.667-1.653l-0.32-0.576v-19.115l0.32-0.523c0.224-0.352 0.512-0.64 0.896-0.864 0.8-0.48 1.28-0.544 2.155-0.288z"></path>
<path d="M6.091 6.357l-0.331 0.277v18.347l0.405 0.405c0.544 0.544 1.056 0.64 1.685 0.341 0.896-0.437 0.843 0.117 0.875-8.907l0.032-7.979-0.619-1.173c-0.331-0.651-0.725-1.269-0.864-1.387-0.363-0.277-0.8-0.256-1.184 0.075z"></path>
<path d="M10.805 6.293c-0.416 0.245-0.501 0.533-0.437 1.419 0.043 0.533 0.149 0.821 0.533 1.515 0.587 1.035 2.080 3.744 2.944 5.333 0.341 0.651 0.747 1.387 0.896 1.653s0.832 1.515 1.525 2.773c3.253 5.941 3.68 6.688 3.957 6.805 0.352 0.171 0.523 0.16 0.885-0.032 0.416-0.213 0.576-0.661 0.523-1.461-0.043-0.608-0.149-0.853-1.088-2.539-0.576-1.024-1.344-2.421-1.717-3.093s-1.621-2.955-2.773-5.067c-1.163-2.112-2.421-4.416-2.805-5.12-1.045-1.952-1.173-2.144-1.461-2.272-0.384-0.181-0.587-0.16-0.981 0.085z"></path>
<path d="M24.267 6.187c-0.341 0.139-0.8 0.672-0.907 1.067-0.064 0.213-0.107 3.52-0.107 8.128v7.787l0.267 0.533c0.576 1.141 1.045 1.909 1.259 2.059 0.341 0.235 0.768 0.192 1.131-0.117l0.331-0.277v-9.12c0-10.251 0.053-9.536-0.8-9.952-0.469-0.224-0.821-0.256-1.173-0.107z"></path>
</symbol>
<symbol id="icon-phone" viewBox="0 0 32 32">
<path d="M22 20c-2 2-2 4-4 4s-4-2-6-4-4-4-4-6 2-2 4-4-4-8-6-8-6 6-6 6c0 4 4.109 12.109 8 16s12 8 16 8c0 0 6-4 6-6s-6-8-8-6z"></path>
</symbol>
<symbol id="icon-location2" viewBox="0 0 32 32">
<path d="M16 0c-5.523 0-10 4.477-10 10 0 10 10 22 10 22s10-12 10-22c0-5.523-4.477-10-10-10zM16 16.125c-3.383 0-6.125-2.742-6.125-6.125s2.742-6.125 6.125-6.125 6.125 2.742 6.125 6.125-2.742 6.125-6.125 6.125zM12.125 10c0-2.14 1.735-3.875 3.875-3.875s3.875 1.735 3.875 3.875c0 2.14-1.735 3.875-3.875 3.875s-3.875-1.735-3.875-3.875z"></path>
</symbol>
<symbol id="icon-briefcase" viewBox="0 0 32 32">
<path d="M30 8h-8v-2c0-1.1-0.9-2-2-2h-8c-1.1 0-2 0.9-2 2v2h-8c-1.1 0-2 0.9-2 2v18c0 1.1 0.9 2 2 2h28c1.1 0 2-0.9 2-2v-18c0-1.1-0.9-2-2-2zM12 6.004c0.001-0.001 0.002-0.003 0.004-0.004h7.993c0.001 0.001 0.003 0.002 0.004 0.004v1.996h-8v-1.996zM30 16h-4v3c0 0.55-0.45 1-1 1h-2c-0.55 0-1-0.45-1-1v-3h-12v3c0 0.55-0.45 1-1 1h-2c-0.55 0-1-0.45-1-1v-3h-4v-2h28v2z"></path>
</symbol>
</defs>
</svg>
