
<svg xmlns="http://www.w3.org/2000/svg" aria-hidden="true" style="position:absolute;width:0;height:0;overflow:hidden">
  <defs>
    <symbol id="icon-logo" viewBox="0 0 32 32">
<path d="M0 16v16h32v-32h-32v16zM7.477 4.544c0.427 0.128 0.704 0.299 1.067 0.672l0.491 0.512 0.331-0.405c0.949-1.12 2.869-1.184 3.883-0.128 0.256 0.267 0.981 1.557 3.307 5.845 0.352 0.64 1.024 1.867 1.493 2.72 1.504 2.709 1.952 3.541 2.763 5.013l0.789 1.44 0.053-6.773c0.064-7.509 0.021-7.125 0.779-7.968 0.576-0.629 1.44-1.013 2.304-1.013 1.333-0.011 2.325 0.608 2.891 1.771l0.32 0.683v18.592l-0.267 0.576c-0.437 0.917-1.312 1.461-2.336 1.472-0.811 0.011-1.472-0.277-1.984-0.843l-0.384-0.416-0.491 0.491c-0.992 0.992-2.507 1.056-3.595 0.139-0.181-0.149-0.501-0.597-0.715-0.981-0.224-0.395-0.619-1.12-0.896-1.621s-0.661-1.195-0.853-1.547c-0.459-0.843-2.016-3.68-2.72-4.96-0.309-0.555-1.184-2.144-1.931-3.52l-1.376-2.496-0.053 6.763-0.053 6.773-0.288 0.544c-0.565 1.067-1.643 1.696-2.912 1.685-1.077-0.011-2.112-0.64-2.667-1.653l-0.32-0.576v-19.115l0.32-0.523c0.224-0.352 0.512-0.64 0.896-0.864 0.8-0.48 1.28-0.544 2.155-0.288z"></path>
<path d="M6.091 6.357l-0.331 0.277v18.347l0.405 0.405c0.544 0.544 1.056 0.64 1.685 0.341 0.896-0.437 0.843 0.117 0.875-8.907l0.032-7.979-0.619-1.173c-0.331-0.651-0.725-1.269-0.864-1.387-0.363-0.277-0.8-0.256-1.184 0.075z"></path>
<path d="M10.805 6.293c-0.416 0.245-0.501 0.533-0.437 1.419 0.043 0.533 0.149 0.821 0.533 1.515 0.587 1.035 2.080 3.744 2.944 5.333 0.341 0.651 0.747 1.387 0.896 1.653s0.832 1.515 1.525 2.773c3.253 5.941 3.68 6.688 3.957 6.805 0.352 0.171 0.523 0.16 0.885-0.032 0.416-0.213 0.576-0.661 0.523-1.461-0.043-0.608-0.149-0.853-1.088-2.539-0.576-1.024-1.344-2.421-1.717-3.093s-1.621-2.955-2.773-5.067c-1.163-2.112-2.421-4.416-2.805-5.12-1.045-1.952-1.173-2.144-1.461-2.272-0.384-0.181-0.587-0.16-0.981 0.085z"></path>
<path d="M24.267 6.187c-0.341 0.139-0.8 0.672-0.907 1.067-0.064 0.213-0.107 3.52-0.107 8.128v7.787l0.267 0.533c0.576 1.141 1.045 1.909 1.259 2.059 0.341 0.235 0.768 0.192 1.131-0.117l0.331-0.277v-9.12c0-10.251 0.053-9.536-0.8-9.952-0.469-0.224-0.821-0.256-1.173-0.107z"></path>
</symbol>
<symbol id="icon-phone" viewBox="0 0 32 32">
<path d="M22 20c-2 2-2 4-4 4s-4-2-6-4-4-4-4-6 2-2 4-4-4-8-6-8-6 6-6 6c0 4 4.109 12.109 8 16s12 8 16 8c0 0 6-4 6-6s-6-8-8-6z"></path>
</symbol>
<symbol id="icon-location2" viewBox="0 0 32 32">
<path d="M16 0c-5.523 0-10 4.477-10 10 0 10 10 22 10 22s10-12 10-22c0-5.523-4.477-10-10-10zM16 16.125c-3.383 0-6.125-2.742-6.125-6.125s2.742-6.125 6.125-6.125 6.125 2.742 6.125 6.125-2.742 6.125-6.125 6.125zM12.125 10c0-2.14 1.735-3.875 3.875-3.875s3.875 1.735 3.875 3.875c0 2.14-1.735 3.875-3.875 3.875s-3.875-1.735-3.875-3.875z"></path>
</symbol>
<symbol id="icon-briefcase" viewBox="0 0 32 32">
<path d="M30 8h-8v-2c0-1.1-0.9-2-2-2h-8c-1.1 0-2 0.9-2 2v2h-8c-1.1 0-2 0.9-2 2v18c0 1.1 0.9 2 2 2h28c1.1 0 2-0.9 2-2v-18c0-1.1-0.9-2-2-2zM12 6.004c0.001-0.001 0.002-0.003 0.004-0.004h7.993c0.001 0.001 0.003 0.002 0.004 0.004v1.996h-8v-1.996zM30 16h-4v3c0 0.55-0.45 1-1 1h-2c-0.55 0-1-0.45-1-1v-3h-12v3c0 0.55-0.45 1-1 1h-2c-0.55 0-1-0.45-1-1v-3h-4v-2h28v2z"></path>
</symbol>
<symbol id="icon-iconfacebook" viewBox="0 0 32 32">
<path fill="#0b84ee" style="fill: var(--color1, #0b84ee)" d="M0 0h32v32h-32v-32z"></path>
<path fill="#fff" style="fill: var(--color2, #fff)" d="M17.326 16.292h2.978l0.468-3.043h-3.446v-1.663c0-1.264 0.411-2.385 1.586-2.385h1.889v-2.656c-0.332-0.045-1.034-0.144-2.36-0.144-2.769 0-4.393 1.471-4.393 4.824v2.025h-2.847v3.043h2.847v8.365c0.564 0.085 1.135 0.143 1.721 0.143 0.53 0 1.047-0.049 1.558-0.118v-8.39z"></path>
</symbol>
<symbol id="icon-icontelegramm" viewBox="0 0 32 32">
<path fill="#27a6e5" style="fill: var(--color3, #27a6e5)" d="M0 0h32v32h-32v-32z"></path>
<path fill="#fefefe" style="fill: var(--color4, #fefefe)" d="M22.4 10.082l-2.404 12.552c0 0-0.336 0.87-1.261 0.453l-5.547-4.405-0.026-0.013c0.749-0.697 6.56-6.107 6.814-6.352 0.393-0.38 0.149-0.606-0.307-0.319l-8.583 5.644-3.311-1.154c0 0-0.521-0.192-0.571-0.609s0.588-0.644 0.588-0.644l13.499-5.484c0 0 1.11-0.505 1.11 0.331z"></path>
</symbol>
<symbol id="icon-iconviber" viewBox="0 0 32 32">
<path fill="#7c509a" style="fill: var(--color5, #7c509a)" d="M0 0h32v32h-32v-32z"></path>
<path fill="#fff" style="fill: var(--color2, #fff)" d="M21.003 7.637c-3.049-0.582-6.216-0.582-9.265 0-1.349 0.291-3.049 1.922-3.342 3.203-0.528 2.504-0.528 5.066 0 7.57 0.352 1.281 2.052 2.912 3.342 3.203 0.059 0 0.117 0.058 0.117 0.116v3.669c0 0.175 0.235 0.291 0.352 0.116l1.759-1.805c0 0 1.407-1.456 1.642-1.689 0 0 0.059-0.058 0.117-0.058 1.759 0.058 3.577-0.116 5.336-0.408 1.349-0.291 3.049-1.922 3.342-3.203 0.528-2.504 0.528-5.066 0-7.57-0.352-1.223-2.052-2.853-3.401-3.144zM21.062 18.584c-0.293 0.582-0.645 1.048-1.231 1.339-0.176 0.058-0.352 0.116-0.528 0.175-0.235-0.058-0.41-0.116-0.586-0.175-1.876-0.757-3.636-1.805-5.043-3.319-0.762-0.873-1.407-1.863-1.935-2.912-0.235-0.524-0.469-0.99-0.645-1.514-0.176-0.466 0.117-0.932 0.41-1.281s0.645-0.582 1.056-0.757c0.293-0.175 0.586-0.058 0.821 0.175 0.469 0.582 0.938 1.165 1.29 1.805 0.235 0.408 0.176 0.874-0.235 1.165-0.117 0.058-0.176 0.116-0.293 0.233-0.059 0.058-0.176 0.116-0.235 0.233-0.117 0.175-0.117 0.349-0.059 0.524 0.469 1.339 1.349 2.387 2.697 2.97 0.235 0.116 0.41 0.175 0.704 0.175 0.41-0.058 0.586-0.524 0.88-0.757s0.645-0.233 0.997-0.058c0.293 0.175 0.586 0.408 0.938 0.641 0.293 0.233 0.586 0.408 0.88 0.641 0.176 0.116 0.235 0.408 0.117 0.699zM18.599 14.217c-0.117 0-0.059 0 0 0-0.235 0-0.293-0.116-0.352-0.291 0-0.116 0-0.291-0.059-0.408-0.059-0.233-0.176-0.466-0.41-0.641-0.117-0.058-0.235-0.116-0.352-0.175-0.176-0.058-0.293-0.058-0.469-0.058-0.176-0.058-0.235-0.175-0.235-0.349 0-0.116 0.176-0.233 0.293-0.233 0.938 0.058 1.642 0.582 1.759 1.689 0 0.058 0 0.175 0 0.233 0 0.116-0.059 0.233-0.176 0.233zM18.013 11.655c-0.293-0.116-0.586-0.233-0.938-0.291-0.117 0-0.293-0.058-0.41-0.058-0.176 0-0.293-0.116-0.235-0.291 0-0.175 0.117-0.291 0.293-0.233 0.586 0.058 1.114 0.175 1.642 0.408 1.056 0.524 1.642 1.398 1.818 2.562 0 0.058 0 0.116 0 0.175 0 0.116 0 0.233 0 0.408 0 0.058 0 0.116 0 0.175-0.059 0.233-0.469 0.291-0.528 0 0-0.058-0.059-0.175-0.059-0.233 0-0.524-0.117-1.048-0.352-1.514-0.352-0.524-0.762-0.873-1.231-1.106zM21.179 15.148c-0.176 0-0.293-0.175-0.293-0.349 0-0.349-0.059-0.699-0.117-1.048-0.235-1.863-1.759-3.377-3.577-3.669-0.293-0.058-0.586-0.058-0.821-0.116-0.176 0-0.41 0-0.469-0.233-0.059-0.175 0.117-0.349 0.293-0.349 0.059 0 0.117 0 0.117 0 0.117 0 2.404 0.058 0 0 2.463 0.058 4.515 1.689 4.926 4.134 0.059 0.408 0.117 0.815 0.117 1.281 0.117 0.175 0 0.349-0.176 0.349z"></path>
</symbol>
<symbol id="icon-phone-call-svgrepo-com" viewBox="0 0 32 32">
<path d="M9.143 3.26c1.523 1.111 2.709 2.627 3.724 4.078l0.589 0.858 0.556 0.82c0.571 0.836 0.435 1.976-0.341 2.648l-2.601 1.932c-0.258 0.192-0.344 0.54-0.189 0.821 0.589 1.071 1.637 2.666 2.837 3.866 1.201 1.201 2.871 2.317 4.016 2.972 0.297 0.17 0.67 0.071 0.858-0.215l1.692-2.578c0.649-0.864 1.861-1.052 2.742-0.443l0.885 0.612c1.651 1.147 3.427 2.449 4.784 4.186 0.455 0.583 0.523 1.346 0.251 1.98-1.116 2.603-3.939 4.821-6.876 4.713l-0.401-0.022-0.311-0.027-0.344-0.038-0.375-0.052-0.406-0.067c-0.070-0.013-0.141-0.026-0.214-0.040l-0.448-0.094c-0.077-0.017-0.155-0.035-0.234-0.054l-0.488-0.125-0.513-0.148-0.536-0.172c-2.462-0.834-5.585-2.474-8.791-5.679s-4.845-6.329-5.679-8.791l-0.172-0.536-0.148-0.513-0.125-0.488-0.104-0.462c-0.031-0.15-0.059-0.294-0.085-0.435l-0.067-0.406-0.052-0.375-0.038-0.344-0.027-0.311-0.022-0.401c-0.108-2.927 2.135-5.772 4.726-6.882 0.608-0.261 1.345-0.213 1.927 0.212zM19.989 8.053l0.155 0.018c0.971 0.171 1.862 0.645 2.547 1.354s1.127 1.616 1.264 2.592c0.103 0.729-0.406 1.403-1.135 1.506-0.677 0.095-1.307-0.336-1.475-0.982l-0.030-0.153c-0.059-0.418-0.249-0.807-0.542-1.111-0.245-0.253-0.551-0.436-0.887-0.533l-0.205-0.047c-0.725-0.128-1.209-0.819-1.081-1.545 0.119-0.673 0.724-1.139 1.39-1.1v0zM20 4c1.051 0 2.091 0.207 3.061 0.609s1.853 0.991 2.595 1.734c0.743 0.743 1.332 1.625 1.734 2.595s0.609 2.011 0.609 3.061c0 0.736-0.597 1.333-1.333 1.333-0.684 0-1.247-0.515-1.324-1.178l-0.009-0.155c0-0.7-0.138-1.394-0.406-2.041s-0.661-1.235-1.156-1.73c-0.495-0.495-1.083-0.888-1.73-1.156-0.539-0.223-1.111-0.356-1.692-0.394l-0.349-0.011c-0.736 0-1.333-0.597-1.333-1.333s0.597-1.333 1.333-1.333z"></path>
</symbol>
<symbol id="icon-viber-svgrepo-com" viewBox="0 0 32 32">
<path fill="#7d3daf" style="fill: var(--color6, #7d3daf)" d="M0 0h32v32h-32v-32z"></path>
<path fill="#fff" style="fill: var(--color7, #fff)" d="M26.12 10.315l-0.006-0.025c-0.511-2.066-2.816-4.284-4.932-4.745l-0.024-0.005c-3.423-0.653-6.894-0.653-10.316 0l-0.025 0.005c-2.116 0.461-4.42 2.679-4.932 4.745l-0.006 0.025c-0.632 2.886-0.632 5.813 0 8.698l0.006 0.025c0.49 1.978 2.623 4.094 4.66 4.676v2.307c0 0.835 1.017 1.245 1.596 0.642l2.337-2.429c0.507 0.028 1.014 0.044 1.521 0.044 1.723 0 3.447-0.163 5.158-0.489l0.024-0.005c2.116-0.461 4.421-2.679 4.932-4.745l0.006-0.025c0.632-2.886 0.632-5.813 0-8.699zM24.271 18.595c-0.341 1.348-2.091 3.024-3.481 3.334-1.82 0.346-3.655 0.494-5.487 0.443-0.036-0.001-0.071 0.013-0.097 0.039-0.26 0.267-1.706 1.752-1.706 1.752l-1.815 1.863c-0.133 0.138-0.366 0.044-0.366-0.147v-3.821c0-0.063-0.045-0.117-0.107-0.129-0-0-0.001-0-0.001-0-1.39-0.31-3.139-1.986-3.481-3.334-0.569-2.609-0.569-5.253 0-7.861 0.342-1.348 2.091-3.024 3.481-3.334 3.179-0.605 6.402-0.605 9.58 0 1.391 0.31 3.14 1.986 3.481 3.334 0.569 2.609 0.569 5.253 0 7.862z"></path>
<path fill="#fff" style="fill: var(--color7, #fff)" d="M19.024 20.359c-0.214-0.065-0.417-0.108-0.607-0.187-1.96-0.813-3.764-1.862-5.193-3.471-0.813-0.915-1.449-1.947-1.986-3.040-0.255-0.518-0.47-1.057-0.689-1.592-0.2-0.488 0.094-0.992 0.404-1.359 0.291-0.345 0.665-0.609 1.070-0.804 0.316-0.152 0.628-0.064 0.859 0.204 0.499 0.579 0.958 1.188 1.329 1.86 0.228 0.413 0.166 0.918-0.248 1.199-0.101 0.068-0.192 0.149-0.286 0.226-0.082 0.068-0.159 0.136-0.216 0.227-0.103 0.168-0.108 0.365-0.042 0.547 0.51 1.402 1.37 2.492 2.781 3.080 0.226 0.094 0.453 0.203 0.713 0.173 0.436-0.051 0.577-0.529 0.882-0.779 0.298-0.244 0.68-0.247 1.001-0.044s0.633 0.422 0.943 0.643c0.304 0.217 0.607 0.429 0.887 0.676 0.27 0.238 0.363 0.549 0.211 0.872-0.278 0.59-0.683 1.082-1.266 1.395-0.165 0.088-0.362 0.117-0.547 0.174-0.214-0.065 0.186-0.057 0 0z"></path>
<path fill="#fff" style="fill: var(--color7, #fff)" d="M16.005 9.231c2.564 0.072 4.67 1.773 5.121 4.308 0.077 0.432 0.104 0.873 0.138 1.312 0.014 0.184-0.090 0.36-0.289 0.362-0.206 0.002-0.298-0.169-0.311-0.354-0.026-0.365-0.045-0.731-0.095-1.093-0.265-1.91-1.788-3.49-3.69-3.829-0.286-0.051-0.579-0.064-0.869-0.095-0.183-0.019-0.423-0.030-0.464-0.258-0.034-0.191 0.127-0.343 0.309-0.353 0.049-0.003 0.099-0.001 0.149-0 2.564 0.072-0.050-0 0 0z"></path>
<path fill="#fff" style="fill: var(--color7, #fff)" d="M19.902 14.283c-0.004 0.032-0.006 0.107-0.025 0.178-0.068 0.257-0.458 0.29-0.548 0.030-0.027-0.077-0.031-0.165-0.031-0.248-0.001-0.543-0.119-1.086-0.393-1.558-0.282-0.486-0.712-0.894-1.216-1.141-0.305-0.149-0.635-0.242-0.969-0.297-0.146-0.024-0.294-0.039-0.441-0.059-0.178-0.025-0.273-0.138-0.265-0.313 0.008-0.164 0.128-0.282 0.307-0.272 0.588 0.033 1.157 0.161 1.68 0.438 1.064 0.563 1.671 1.453 1.849 2.64 0.008 0.054 0.021 0.107 0.025 0.161 0.010 0.133 0.016 0.267 0.027 0.443-0.004 0.032-0.010-0.176 0 0z"></path>
<path fill="#fff" style="fill: var(--color7, #fff)" d="M18.307 14.221c-0.215 0.004-0.329-0.115-0.351-0.312-0.015-0.137-0.028-0.276-0.060-0.409-0.064-0.263-0.204-0.506-0.425-0.667-0.104-0.076-0.223-0.131-0.346-0.167-0.157-0.045-0.321-0.033-0.478-0.071-0.171-0.042-0.265-0.18-0.238-0.34 0.024-0.146 0.166-0.259 0.325-0.248 0.994 0.072 1.704 0.586 1.806 1.756 0.007 0.083 0.016 0.17-0.003 0.249-0.031 0.135-0.132 0.203-0.229 0.21-0.215 0.004 0.098-0.007 0 0z"></path>
</symbol>
<symbol id="icon-telegram-svgrepo-com" viewBox="0 0 32 32">
<path fill="#37aee2" style="fill: var(--color2, #37aee2)" d="M0 0h32v32h-32v-32z"></path>
<path fill="#c8daea" style="fill: var(--color3, #c8daea)" d="M12.438 25.25c-0.688 0-0.625-0.25-0.813-0.875l-2-6.563 15.313-9z"></path>
<path fill="#a9c9dd" style="fill: var(--color4, #a9c9dd)" d="M12.438 25.25c0.438 0 0.688-0.25 1-0.5l2.813-2.688-3.5-2.125z"></path>
<path fill="#f6fbfe" style="fill: var(--color5, #f6fbfe)" d="M12.75 19.938l8.438 6.188c0.875 0.563 1.625 0.25 1.875-0.875l3.438-16.125c0.313-1.375-0.563-2-1.5-1.563l-20.063 7.75c-1.313 0.5-1.313 1.313-0.25 1.625l5.188 1.625 11.875-7.563c0.563-0.313 1.063-0.188 0.688 0.25z"></path>
</symbol>
<symbol id="icon-facebook-color-svgrepo-com" viewBox="0 0 32 32">
<path d="M17.092 32h-15.326c-0.976 0-1.766-0.791-1.766-1.766v-28.468c0-0.976 0.791-1.766 1.766-1.766h28.468c0.975 0 1.766 0.791 1.766 1.766v28.468c0 0.975-0.791 1.766-1.766 1.766h-8.154v-12.392h4.159l0.623-4.829h-4.782v-3.083c0-1.398 0.388-2.351 2.393-2.351l2.557-0.001v-4.319c-0.442-0.059-1.96-0.19-3.727-0.19-3.687 0-6.211 2.251-6.211 6.384v3.562h-4.17v4.829h4.17v12.392z"></path>
<symbol id="icon-email-svgrepo-com" viewBox="0 0 32 32">
<path fill="#008080" style="fill: var(--color1, #008080)" d="M0 0h32v32h-32v-32z"></path>
<path fill="#fff" style="fill: var(--color2, #fff)" d="M4.875 8h22.25v16h-22.25v-16z"></path>
<path fill="none" stroke="#008080" style="stroke: var(--color1, #008080)" stroke-linejoin="miter" stroke-linecap="butt" stroke-miterlimit="4" stroke-width="1.25" d="M27.125 8l-10.313 10.25c-0.438 0.5-1.188 0.5-1.625 0l-10.313-10.25M4.875 24l8.063-8M27.125 24l-8.063-8"></path>
</symbol>
<symbol id="icon-check-mark-button-svgrepo-com" viewBox="0 0 32 32">
<path fill="#689f38" style="fill: var(--color1, #689f38)" d="M29.115 0.99h-26c-1.105 0-2 0.895-2 2v26c0 1.105 0.895 2 2 2h26c1.105 0 2-0.895 2-2v-26c0-1.105-0.895-2-2-2z"></path>
<path fill="#7cb342" style="fill: var(--color2, #7cb342)" d="M27.54 0.99h-24.55c-1.032 0.008-1.867 0.843-1.875 1.874v24.476c-0.002 1.035 0.835 1.872 1.87 1.875h24.53c1.035 0.003 1.872-0.835 1.875-1.87v-24.48c0.023-1.012-0.782-1.853-1.795-1.875h-0.055z"></path>
<path fill="#fff" style="fill: var(--color3, #fff)" opacity="0.3" d="M10.040 3.215c0-0.575-0.4-0.75-2.7-0.675-1.925 0.075-2.875 0.3-3.45 1s-0.725 2.125-0.75 3.825c0 1.2 0 2.325 0.625 2.325 0.85 0 0.85-1.975 1.55-3.075 1.35-2.175 4.725-2.65 4.725-3.4z"></path>
<path fill="#fbf9f9" style="fill: var(--color4, #fbf9f9)" d="M10.815 27.365c-0.018 0.001-0.040 0.001-0.062 0.001-0.986 0-1.822-0.644-2.109-1.535l-0.004-0.016-3.775-11.375c-0.365-1.203 0.315-2.475 1.518-2.84 1.162-0.352 2.398 0.27 2.808 1.415l2.45 7.375 11.775-14.9c0.78-0.987 2.212-1.155 3.2-0.375s1.155 2.213 0.375 3.2l-14.4 18.175c-0.416 0.53-1.055 0.87-1.774 0.875h-0.001z"></path>
</symbol>
</defs>
</svg>
